<svg width="164" height="50" data-v-423bf9ae="" xmlns="http://www.w3.org/2000/svg" viewBox="0 0 326.2579751778512 60" class="font"><!----><!----><defs data-v-423bf9ae=""><linearGradient data-v-423bf9ae="" gradientTransform="rotate(25)" id="11cc1ea3-d89d-4504-bd8a-af670d06cfef" x1="0%" y1="0%" x2="100%" y2="0%"><stop data-v-423bf9ae="" offset="0%" style="stop-color: rgb(23, 119, 117); stop-opacity: 1;"></stop><stop data-v-423bf9ae="" offset="100%" style="stop-color: rgb(40, 210, 191); stop-opacity: 1;"></stop></linearGradient></defs><g data-v-423bf9ae="" id="5b7e0dfc-f08c-45b2-a28b-02fda33b00c1" fill="url(#11cc1ea3-d89d-4504-bd8a-af670d06cfef)" transform="matrix(4.2283302189378364,0,0,4.2283302189378364,2.3255796656780205,-11.374209007726932)"><path d="M-0.05 16.88L-0.55 16.08L-0.55 16.08Q0.08 15.67 0.46 15.24L0.46 15.24L0.46 15.24Q0.84 14.81 1.05 14.32L1.05 14.32L1.05 14.32Q1.26 13.83 1.33 13.28L1.33 13.28L1.33 13.28Q1.39 12.72 1.39 12.07L1.39 12.07L1.39 3.63L3.10 3.63L3.10 11.59L3.10 11.59Q3.10 12.48 2.95 13.25L2.95 13.25L2.95 13.25Q2.80 14.02 2.44 14.68L2.44 14.68L2.44 14.68Q2.08 15.35 1.48 15.90L1.48 15.90L1.48 15.90Q0.88 16.45-0.05 16.88L-0.05 16.88ZM8.71 13.78L8.71 13.78L8.71 13.78Q7.85 13.78 7.20 13.49L7.20 13.49L7.20 13.49Q6.55 13.21 6.10 12.72L6.10 12.72L6.10 12.72Q5.66 12.23 5.43 11.59L5.43 11.59L5.43 11.59Q5.20 10.94 5.20 10.23L5.20 10.23L5.20 10.23Q5.20 9.40 5.50 8.68L5.50 8.68L5.50 8.68Q5.79 7.96 6.32 7.42L6.32 7.42L6.32 7.42Q6.85 6.88 7.58 6.57L7.58 6.57L7.58 6.57Q8.31 6.26 9.19 6.26L9.19 6.26L9.19 6.26Q10.04 6.26 10.70 6.55L10.70 6.55L10.70 6.55Q11.35 6.84 11.80 7.33L11.80 7.33L11.80 7.33Q12.24 7.82 12.47 8.47L12.47 8.47L12.47 8.47Q12.70 9.11 12.70 9.83L12.70 9.83L12.70 9.83Q12.70 10.66 12.40 11.39L12.40 11.39L12.40 11.39Q12.11 12.11 11.57 12.64L11.57 12.64L11.57 12.64Q11.04 13.17 10.31 13.48L10.31 13.48L10.31 13.48Q9.58 13.78 8.71 13.78ZM9.00 12.60L9.00 12.60L9.00 12.60Q9.43 12.60 9.80 12.42L9.80 12.42L9.80 12.42Q10.16 12.24 10.42 11.91L10.42 11.91L10.42 11.91Q10.68 11.59 10.82 11.14L10.82 11.14L10.82 11.14Q10.96 10.68 10.96 10.14L10.96 10.14L10.96 10.14Q10.96 9.60 10.82 9.12L10.82 9.12L10.82 9.12Q10.68 8.63 10.42 8.26L10.42 8.26L10.42 8.26Q10.15 7.89 9.77 7.67L9.77 7.67L9.77 7.67Q9.39 7.44 8.90 7.44L8.90 7.44L8.90 7.44Q8.46 7.44 8.09 7.63L8.09 7.63L8.09 7.63Q7.73 7.81 7.48 8.14L7.48 8.14L7.48 8.14Q7.22 8.47 7.08 8.92L7.08 8.92L7.08 8.92Q6.93 9.38 6.93 9.92L6.93 9.92L6.93 9.92Q6.93 10.46 7.07 10.94L7.07 10.94L7.07 10.94Q7.21 11.43 7.48 11.80L7.48 11.80L7.48 11.80Q7.75 12.17 8.13 12.38L8.13 12.38L8.13 12.38Q8.51 12.60 9.00 12.60ZM14.55 13.33L14.55 2.69L16.20 2.69L16.20 7.52L16.20 7.52Q16.50 7.25 16.81 7.02L16.81 7.02L16.81 7.02Q17.11 6.79 17.43 6.63L17.43 6.63L17.43 6.63Q17.75 6.46 18.09 6.36L18.09 6.36L18.09 6.36Q18.43 6.26 18.81 6.26L18.81 6.26L18.81 6.26Q19.46 6.26 19.98 6.55L19.98 6.55L19.98 6.55Q20.50 6.84 20.87 7.33L20.87 7.33L20.87 7.33Q21.23 7.81 21.42 8.44L21.42 8.44L21.42 8.44Q21.62 9.07 21.62 9.75L21.62 9.75L21.62 9.75Q21.62 10.59 21.32 11.32L21.32 11.32L21.32 11.32Q21.03 12.06 20.47 12.61L20.47 12.61L20.47 12.61Q19.91 13.15 19.08 13.47L19.08 13.47L19.08 13.47Q18.26 13.78 17.21 13.78L17.21 13.78L17.21 13.78Q16.65 13.78 15.96 13.68L15.96 13.68L15.96 13.68Q15.26 13.58 14.55 13.33L14.55 13.33ZM16.20 8.41L16.20 12.28L16.20 12.28Q16.57 12.45 16.93 12.52L16.93 12.52L16.93 12.52Q17.29 12.60 17.61 12.60L17.61 12.60L17.61 12.60Q18.18 12.60 18.60 12.38L18.60 12.38L18.60 12.38Q19.03 12.17 19.32 11.81L19.32 11.81L19.32 11.81Q19.61 11.44 19.75 10.98L19.75 10.98L19.75 10.98Q19.89 10.51 19.89 10.00L19.89 10.00L19.89 10.00Q19.89 9.52 19.77 9.07L19.77 9.07L19.77 9.07Q19.65 8.63 19.40 8.29L19.40 8.29L19.40 8.29Q19.16 7.94 18.81 7.73L18.81 7.73L18.81 7.73Q18.46 7.53 18.01 7.53L18.01 7.53L18.01 7.53Q17.63 7.53 17.18 7.71L17.18 7.71L17.18 7.71Q16.73 7.90 16.20 8.41L16.20 8.41ZM30.63 4.83L30.63 13.64L28.92 13.64L28.92 4.83L25.68 4.83L25.90 3.63L33.97 3.63L33.75 4.83L30.63 4.83ZM34.37 13.64L34.37 6.40L35.71 6.40L35.94 8.56L35.94 8.56Q36.04 8.38 36.14 8.19L36.14 8.19L36.14 8.19Q36.24 8.00 36.35 7.83L36.35 7.83L36.35 7.83Q36.45 7.66 36.54 7.51L36.54 7.51L36.54 7.51Q36.63 7.37 36.69 7.27L36.69 7.27L36.69 7.27Q36.83 7.06 37.01 6.87L37.01 6.87L37.01 6.87Q37.19 6.69 37.41 6.55L37.41 6.55L37.41 6.55Q37.62 6.42 37.86 6.34L37.86 6.34L37.86 6.34Q38.11 6.26 38.40 6.26L38.40 6.26L38.40 6.26Q38.60 6.26 38.79 6.31L38.79 6.31L38.79 6.31Q38.99 6.36 39.13 6.46L39.13 6.46L38.95 7.98L38.95 7.98Q38.83 7.95 38.66 7.94L38.66 7.94L38.66 7.94Q38.50 7.93 38.37 7.93L38.37 7.93L38.37 7.93Q37.93 7.93 37.59 8.06L37.59 8.06L37.59 8.06Q37.25 8.18 36.97 8.40L36.97 8.40L36.97 8.40Q36.70 8.63 36.47 8.93L36.47 8.93L36.47 8.93Q36.24 9.23 36.03 9.58L36.03 9.58L36.03 13.64L34.37 13.64ZM44.52 12.58L44.52 12.58L44.52 12.58Q44.34 12.73 44.10 12.94L44.10 12.94L44.10 12.94Q43.85 13.15 43.54 13.33L43.54 13.33L43.54 13.33Q43.24 13.52 42.88 13.65L42.88 13.65L42.88 13.65Q42.52 13.78 42.12 13.78L42.12 13.78L42.12 13.78Q41.72 13.78 41.37 13.63L41.37 13.63L41.37 13.63Q41.03 13.49 40.77 13.22L40.77 13.22L40.77 13.22Q40.52 12.96 40.37 12.60L40.37 12.60L40.37 12.60Q40.22 12.23 40.22 11.79L40.22 11.79L40.22 11.79Q40.22 11.32 40.41 10.88L40.41 10.88L40.41 10.88Q40.60 10.43 41.04 10.08L41.04 10.08L41.04 10.08Q41.48 9.73 42.21 9.52L42.21 9.52L42.21 9.52Q42.93 9.30 44.00 9.30L44.00 9.30L44.50 9.30L44.50 8.74L44.50 8.74Q44.50 8.44 44.39 8.20L44.39 8.20L44.39 8.20Q44.29 7.96 44.11 7.79L44.11 7.79L44.11 7.79Q43.92 7.62 43.66 7.53L43.66 7.53L43.66 7.53Q43.41 7.44 43.09 7.44L43.09 7.44L43.09 7.44Q42.85 7.44 42.57 7.50L42.57 7.50L42.57 7.50Q42.29 7.56 42.01 7.66L42.01 7.66L42.01 7.66Q41.74 7.77 41.48 7.91L41.48 7.91L41.48 7.91Q41.22 8.05 41.02 8.21L41.02 8.21L40.89 8.14L40.58 6.99L40.58 6.99Q41.41 6.56 42.12 6.41L42.12 6.41L42.12 6.41Q42.83 6.26 43.45 6.26L43.45 6.26L43.45 6.26Q44.09 6.26 44.59 6.39L44.59 6.39L44.59 6.39Q45.10 6.52 45.45 6.79L45.45 6.79L45.45 6.79Q45.79 7.06 45.98 7.48L45.98 7.48L45.98 7.48Q46.16 7.89 46.16 8.46L46.16 8.46L46.16 11.81L46.16 11.81Q46.16 11.91 46.17 12.03L46.17 12.03L46.17 12.03Q46.19 12.15 46.24 12.26L46.24 12.26L46.24 12.26Q46.29 12.37 46.39 12.45L46.39 12.45L46.39 12.45Q46.49 12.52 46.66 12.52L46.66 12.52L46.66 12.52Q46.75 12.52 46.89 12.50L46.89 12.50L46.89 12.50Q47.02 12.47 47.16 12.41L47.16 12.41L47.16 13.23L47.16 13.23Q46.79 13.48 46.43 13.63L46.43 13.63L46.43 13.63Q46.06 13.78 45.71 13.78L45.71 13.78L45.71 13.78Q45.44 13.78 45.24 13.68L45.24 13.68L45.24 13.68Q45.04 13.58 44.91 13.41L44.91 13.41L44.91 13.41Q44.77 13.24 44.68 13.03L44.68 13.03L44.68 13.03Q44.58 12.81 44.52 12.58ZM44.50 11.70L44.50 10.11L44.06 10.11L44.06 10.11Q43.35 10.11 42.92 10.21L42.92 10.21L42.92 10.21Q42.49 10.31 42.25 10.48L42.25 10.48L42.25 10.48Q42.01 10.66 41.93 10.89L41.93 10.89L41.93 10.89Q41.85 11.12 41.85 11.38L41.85 11.38L41.85 11.38Q41.85 11.66 41.93 11.87L41.93 11.87L41.93 11.87Q42.01 12.09 42.15 12.23L42.15 12.23L42.15 12.23Q42.29 12.37 42.49 12.45L42.49 12.45L42.49 12.45Q42.68 12.52 42.90 12.52L42.90 12.52L42.90 12.52Q43.06 12.52 43.24 12.49L43.24 12.49L43.24 12.49Q43.42 12.45 43.61 12.35L43.61 12.35L43.61 12.35Q43.80 12.26 44.02 12.10L44.02 12.10L44.02 12.10Q44.24 11.94 44.50 11.70L44.50 11.70ZM53.87 12.15L53.87 12.98L53.87 12.98Q53.39 13.37 52.79 13.58L52.79 13.58L52.79 13.58Q52.20 13.78 51.52 13.78L51.52 13.78L51.52 13.78Q50.75 13.78 50.13 13.52L50.13 13.52L50.13 13.52Q49.52 13.27 49.09 12.81L49.09 12.81L49.09 12.81Q48.66 12.36 48.43 11.73L48.43 11.73L48.43 11.73Q48.19 11.09 48.19 10.34L48.19 10.34L48.19 10.34Q48.19 9.44 48.51 8.69L48.51 8.69L48.51 8.69Q48.82 7.94 49.37 7.40L49.37 7.40L49.37 7.40Q49.91 6.86 50.65 6.56L50.65 6.56L50.65 6.56Q51.39 6.26 52.23 6.26L52.23 6.26L52.23 6.26Q52.42 6.26 52.63 6.28L52.63 6.28L52.63 6.28Q52.84 6.30 53.06 6.33L53.06 6.33L53.06 6.33Q53.29 6.36 53.50 6.42L53.50 6.42L53.50 6.42Q53.72 6.48 53.90 6.56L53.90 6.56L53.61 7.83L53.46 7.90L53.46 7.90Q53.34 7.81 53.17 7.73L53.17 7.73L53.17 7.73Q53.01 7.64 52.81 7.58L52.81 7.58L52.81 7.58Q52.62 7.52 52.42 7.48L52.42 7.48L52.42 7.48Q52.21 7.44 52.01 7.44L52.01 7.44L52.01 7.44Q51.58 7.44 51.20 7.62L51.20 7.62L51.20 7.62Q50.82 7.79 50.53 8.11L50.53 8.11L50.53 8.11Q50.25 8.44 50.09 8.92L50.09 8.92L50.09 8.92Q49.92 9.39 49.92 9.99L49.92 9.99L49.92 9.99Q49.92 10.62 50.10 11.09L50.10 11.09L50.10 11.09Q50.28 11.57 50.59 11.88L50.59 11.88L50.59 11.88Q50.91 12.20 51.34 12.36L51.34 12.36L51.34 12.36Q51.77 12.52 52.27 12.52L52.27 12.52L52.27 12.52Q52.59 12.52 52.99 12.45L52.99 12.45L52.99 12.45Q53.40 12.37 53.87 12.15L53.87 12.15ZM55.75 13.64L55.75 2.69L57.41 2.69L57.41 13.64L55.75 13.64ZM62.51 13.64L60.51 13.64L57.81 9.82L60.63 6.42L62.30 6.42L59.46 9.62L62.51 13.64ZM69.70 12.15L69.70 12.98L69.70 12.98Q69.40 13.19 69.05 13.34L69.05 13.34L69.05 13.34Q68.70 13.49 68.33 13.59L68.33 13.59L68.33 13.59Q67.96 13.69 67.60 13.74L67.60 13.74L67.60 13.74Q67.23 13.78 66.90 13.78L66.90 13.78L66.90 13.78Q66.14 13.78 65.49 13.55L65.49 13.55L65.49 13.55Q64.84 13.32 64.36 12.87L64.36 12.87L64.36 12.87Q63.88 12.41 63.60 11.75L63.60 11.75L63.60 11.75Q63.33 11.09 63.33 10.24L63.33 10.24L63.33 10.24Q63.33 9.33 63.64 8.59L63.64 8.59L63.64 8.59Q63.94 7.85 64.46 7.34L64.46 7.34L64.46 7.34Q64.98 6.82 65.66 6.54L65.66 6.54L65.66 6.54Q66.34 6.26 67.07 6.26L67.07 6.26L67.07 6.26Q67.69 6.26 68.22 6.46L68.22 6.46L68.22 6.46Q68.75 6.67 69.14 7.06L69.14 7.06L69.14 7.06Q69.52 7.46 69.74 8.05L69.74 8.05L69.74 8.05Q69.96 8.65 69.96 9.43L69.96 9.43L69.96 9.43Q69.96 9.63 69.94 9.84L69.94 9.84L69.94 9.84Q69.92 10.06 69.88 10.26L69.88 10.26L65.04 10.26L65.04 10.26Q65.04 10.81 65.24 11.24L65.24 11.24L65.24 11.24Q65.43 11.66 65.79 11.95L65.79 11.95L65.79 11.95Q66.14 12.23 66.64 12.38L66.64 12.38L66.64 12.38Q67.14 12.52 67.74 12.52L67.74 12.52L67.74 12.52Q67.92 12.52 68.14 12.51L68.14 12.51L68.14 12.51Q68.37 12.50 68.63 12.46L68.63 12.46L68.63 12.46Q68.89 12.41 69.17 12.34L69.17 12.34L69.17 12.34Q69.44 12.27 69.70 12.15L69.70 12.15ZM65.04 9.45L68.42 9.45L68.42 9.45Q68.42 8.96 68.29 8.58L68.29 8.58L68.29 8.58Q68.17 8.20 67.95 7.95L67.95 7.95L67.95 7.95Q67.73 7.70 67.44 7.57L67.44 7.57L67.44 7.57Q67.15 7.44 66.81 7.44L66.81 7.44L66.81 7.44Q66.44 7.44 66.12 7.59L66.12 7.59L66.12 7.59Q65.80 7.75 65.56 8.02L65.56 8.02L65.56 8.02Q65.32 8.29 65.18 8.65L65.18 8.65L65.18 8.65Q65.04 9.02 65.04 9.45L65.04 9.45ZM71.85 13.64L71.85 6.40L73.19 6.40L73.42 8.56L73.42 8.56Q73.52 8.38 73.62 8.19L73.62 8.19L73.62 8.19Q73.73 8.00 73.83 7.83L73.83 7.83L73.83 7.83Q73.93 7.66 74.02 7.51L74.02 7.51L74.02 7.51Q74.11 7.37 74.17 7.27L74.17 7.27L74.17 7.27Q74.31 7.06 74.49 6.87L74.49 6.87L74.49 6.87Q74.68 6.69 74.89 6.55L74.89 6.55L74.89 6.55Q75.10 6.42 75.35 6.34L75.35 6.34L75.35 6.34Q75.59 6.26 75.88 6.26L75.88 6.26L75.88 6.26Q76.08 6.26 76.28 6.31L76.28 6.31L76.28 6.31Q76.47 6.36 76.61 6.46L76.61 6.46L76.43 7.98L76.43 7.98Q76.31 7.95 76.15 7.94L76.15 7.94L76.15 7.94Q75.98 7.93 75.85 7.93L75.85 7.93L75.85 7.93Q75.41 7.93 75.07 8.06L75.07 8.06L75.07 8.06Q74.73 8.18 74.45 8.40L74.45 8.40L74.45 8.40Q74.18 8.63 73.95 8.93L73.95 8.93L73.95 8.93Q73.72 9.23 73.51 9.58L73.51 9.58L73.51 13.64L71.85 13.64Z"></path></g><!----><!----></svg>